:SAMPLES-PER-SECOND 30
:FULLY-SPECIFIED
:DEGREES
386
root  83.0677 32.48 -10.8532 -165.87 -43.1511 -178.97
RightUpLeg  -20.3106 -21.9735 -10.8231
RightLeg  28.2088 -5.81391 -2.65204
RightFoot  4.46765 0.00424129 0.262578
RightToes  -52.2726 -0.323171 -0.373461
Spine  9.26078 0.062422 1.46679
Spine1  17.2142 2.59778 -1.76588
HEad  32.8936 28.8299 -13.0087
LeftShoulder1  0 -2.42657e-020 -4.95415e-022
LeftArm  -35.2531 5.39577 -87.7231
LeftForeArm  -167.655 -34.1285 -6.39499
LeftHand  12.9056 -26.6091 -51.5029
RightShoulder  0 2.42657e-020 1.07489e-018
RightArm  -24.7076 31.301 75.59
RightForeArm  24.9935 46.6388 10.7813
RightHand  3.07929 23.7923 14.9159
LeftUpLeg  -29.6272 14.4507 17.0897
LeftLeg  23.118 5.10055 1.7941
LeftFoot  -3.08922 -0.0136241 -0.505255
LeftToes  -19.9723 1.18758e-006 1.19596e-007
387
root  82.5777 32.2981 -10.6985 -166.58 -50.9563 -178.536
RightUpLeg  -15.4508 -23.1678 -12.8418
RightLeg  27.3321 -5.17421 -2.26684
RightFoot  5.198 -0.00037572 0.342279
RightToes  -55.7437 -0.354816 -0.385772
Spine  8.82689 0.231931 1.13847
Spine1  16.2764 3.05736 -2.04377
HEad  35.0584 27.2441 -11.3355
LeftShoulder1  0 -2.42657e-020 -4.95415e-022
LeftArm  -35.113 6.05154 -88.5409
LeftForeArm  -167.648 -34.5187 -6.49467
LeftHand  12.8499 -26.5944 -51.334
RightShoulder  0 2.42657e-020 1.07489e-018
RightArm  -22.3571 32.894 79.0737
RightForeArm  27.8544 45.498 10.3529
RightHand  2.75096 24.1128 13.2019
LeftUpLeg  -33.5071 18.5228 14.9682
LeftLeg  22.2528 5.92707 1.98436
LeftFoot  -2.07387 -0.00730325 -0.403504
LeftToes  -20.4401 1.18758e-006 1.19596e-007
388
root  81.9444 32.0731 -10.4799 -167.2 -58.548 -177.632
RightUpLeg  -10.5537 -24.806 -14.2002
RightLeg  25.5683 -5.26747 -2.11583
RightFoot  6.65165 0.00627311 0.269572
RightToes  -59.8466 -0.393098 -0.397821
Spine  8.40505 0.598752 0.732174
Spine1  15.3314 3.86424 -2.35824
HEad  35.999 24.2848 -9.39825
LeftShoulder1  0 -2.42657e-020 -4.95415e-022
LeftArm  -34.7152 5.76703 -89.2122
LeftForeArm  -168.43 -34.4345 -6.47364
LeftHand  12.9489 -26.8443 -51.2465
RightShoulder  0 2.42657e-020 1.07489e-018
RightArm  -20.3044 33.3803 82.2213
RightForeArm  32.4104 44.7858 10.0926
RightHand  2.2781 24.5433 10.8182
LeftUpLeg  -38.6823 22.5598 10.8837
LeftLeg  22.9096 7.52515 2.61257
LeftFoot  -1.53267 -0.00437985 -0.327451
LeftToes  -20.924 1.18758e-006 1.19596e-007
389
root  81.1777 31.8115 -10.1739 -167.645 -65.9149 -176.248
RightUpLeg  -6.42753 -26.1273 -15.0113
RightLeg  24.0523 -6.11035 -2.2657
RightFoot  8.86986 0.0277175 0.0201753
RightToes  -63.6535 -0.429307 -0.406524
Spine  8.00716 1.06018 0.247739
Spine1  14.3418 4.93354 -2.88874
HEad  35.893 20.7233 -6.99181
LeftShoulder1  0 -2.42657e-020 -4.95415e-022
LeftArm  -34.8367 4.61933 -89.9439
LeftForeArm  -168.31 -33.9169 -6.34181
LeftHand  12.8378 -26.6903 -51.1259
RightShoulder  0 2.42657e-020 1.07489e-018
RightArm  -18.3174 32.8029 85.2111
RightForeArm  38.5286 44.2113 9.88342
RightHand  1.30667 25.1839 6.21626
LeftUpLeg  -45.5277 25.9274 4.82184
LeftLeg  26.497 7.74078 3.23979
LeftFoot  -2.55896 -0.00899617 -0.402793
LeftToes  -13.8562 1.18758e-006 1.19596e-007
390
root  80.2239 31.5008 -9.71962 -166.396 -73.0069 -175.839
RightUpLeg  -2.93665 -28.7662 -16.3298
RightLeg  22.541 -5.77845 -1.97121
RightFoot  12.1019 0.0565956 -0.156343
RightToes  -68.45 -0.475615 -0.414036
Spine  7.52306 1.57318 -0.523271
Spine1  13.0744 6.00785 -3.74079
HEad  35.6708 15.6922 -4.35729
LeftShoulder1  0 -2.42657e-020 -4.95415e-022
LeftArm  -33.8863 2.73467 -90.2466
LeftForeArm  -168.107 -32.9956 -6.11108
LeftHand  12.9037 -26.8831 -51.0236
RightShoulder  0 2.42657e-020 1.07489e-018
RightArm  -17.1111 31.1544 88.4221
RightForeArm  46.2237 43.1689 9.51309
RightHand  -0.346235 25.7648 -1.14406
LeftUpLeg  -51.6034 23.7694 1.07084
LeftLeg  31.6521 5.70953 3.02026
LeftFoot  -3.55648 -0.0106983 -0.344602
LeftToes  -13.1828 1.18758e-006 1.19596e-007
391
root  79.0693 31.1304 -9.13285 -163.571 -79.6857 -176.706
RightUpLeg  0.575977 -32.6247 -18.5444
RightLeg  21.3201 -3.28544 -1.04549
RightFoot  16.6703 0.00753278 0.326121
RightToes  -74.732 -0.53692 -0.417973
Spine  7.33547 2.41255 -1.46894
Spine1  12.2306 7.91623 -5.07207
HEad  34.4015 10.1524 -2.05816
LeftShoulder1  0 -2.42657e-020 -4.95415e-022
LeftArm  -31.9723 -0.503399 -90.6092
LeftForeArm  -167.972 -31.3398 -5.70852
LeftHand  12.981 -26.9085 -51.2475
RightShoulder  0 2.42657e-020 1.07489e-018
RightArm  -15.5934 29.9728 89.963
RightForeArm  54.8947 39.6123 8.35997
RightHand  -3.18618 28.2058 -12.2664
LeftUpLeg  -57.7011 20.046 -1.91376
LeftLeg  38.5811 3.81738 2.65403
LeftFoot  -4.43869 -0.00742232 -0.191531
LeftToes  -9.90142 1.18758e-006 1.19596e-007
